<svg width="48" height="20" viewBox="0 0 48 20" fill="none" xmlns="http://www.w3.org/2000/svg">
<path fill-rule="evenodd" clip-rule="evenodd" d="M11.518 0.242292C10.3746 1.8253 9.73129 3.43155 9.51772 5.23713C9.43485 5.93741 9.48001 7.4621 9.6021 8.08647C9.87768 9.49548 10.4779 10.9312 11.2694 12.0746C11.683 12.6719 11.6815 12.6714 11.9481 12.321C13.2479 10.6123 14.0356 8.09465 13.9331 5.97626C13.8324 3.89473 13.1531 2.00876 11.8664 0.238428L11.6931 0L11.518 0.242292ZM12.3031 2.01009C13.076 3.49872 13.428 4.92294 13.428 6.56102C13.428 7.15076 13.2938 8.52554 13.231 8.58046C13.2195 8.59048 13.1919 8.29464 13.1697 7.92304C13.0944 6.66205 12.869 5.62978 12.4389 4.57625C12.1954 3.9798 11.7437 3.10333 11.6798 3.10333C11.6153 3.10333 11.1876 3.93851 10.9637 4.50166C10.4973 5.67473 10.2946 6.56625 10.2468 7.65426C10.2093 8.50922 10.1657 8.73214 10.1024 8.39156C10.0791 8.26571 10.0279 7.77116 9.98881 7.29252C9.86655 5.79676 10.0717 4.44938 10.6404 3.01272C10.9144 2.32062 11.3965 1.3488 11.6016 1.07554L11.6923 0.954576L11.8657 1.22809C11.9611 1.3785 12.158 1.73042 12.3031 2.01009ZM15.6424 9.56107V13.0188H16.3709H17.0993V9.99328V6.9678H17.7986H18.4979V6.53559V6.10338H17.0701H15.6424V9.56107ZM19.372 6.17513C19.372 6.21459 19.2401 7.38725 19.0789 8.78111C18.7053 12.0105 18.6148 12.8194 18.6146 12.9298C18.6144 13.0097 18.6875 13.0188 19.3349 13.0188H20.0554L20.0944 12.4721C20.1158 12.1715 20.1492 11.7597 20.1686 11.5569L20.2039 11.1882H20.568H20.9322L20.9659 11.4043C20.9844 11.5232 21.0171 11.9351 21.0386 12.3196L21.0777 13.0188H21.8237H22.5697L22.5424 12.8535C22.5273 12.7626 22.3588 11.3153 22.1681 9.63734C21.9773 7.95935 21.8052 6.47778 21.7857 6.34491L21.7503 6.10338H20.5611C19.5764 6.10338 19.372 6.11569 19.372 6.17513ZM24.0923 6.15626C23.7764 6.21392 23.5781 6.33525 23.4221 6.56635C23.3217 6.71509 23.3028 6.84994 23.2858 7.53985L23.2661 8.34071H23.9997H24.7332L24.7341 7.79409C24.735 7.22062 24.8004 7.00782 24.9852 6.97675C25.2314 6.93541 25.2577 7.03324 25.2577 7.99097C25.2577 9.12179 25.2697 9.10343 24.5293 9.10343H24.0339V9.4848V9.86616H24.4749C24.8973 9.86616 25.1209 9.91853 25.2131 10.039C25.2367 10.0698 25.2563 10.5308 25.2568 11.0636C25.2578 12.09 25.2416 12.1543 24.9824 12.1543C24.7819 12.1543 24.7332 11.9799 24.7332 11.2612V10.6289H24.0001H23.2669L23.2863 11.5314C23.3078 12.5331 23.3453 12.6554 23.698 12.8749C23.8777 12.9868 23.9468 12.9942 24.9471 13.0091C25.9241 13.0237 26.0243 13.0168 26.243 12.9195C26.3995 12.8498 26.5247 12.7409 26.6118 12.5986C26.7359 12.3959 26.7447 12.3153 26.7603 11.2391C26.775 10.2231 26.7652 10.0751 26.6729 9.91803C26.5413 9.69404 26.2294 9.51022 25.981 9.51022C25.706 9.51022 25.6826 9.42358 25.9471 9.38457C26.2842 9.3349 26.5329 9.17844 26.6584 8.93711C26.7545 8.75238 26.7704 8.60029 26.7712 7.85765C26.773 6.30738 26.6243 6.14625 25.1703 6.12204C24.7216 6.11452 24.2365 6.12992 24.0923 6.15626ZM27.8218 9.56107V13.0188H28.5794H29.3369V9.99328V6.9678H29.5992H29.8614V9.99328V13.0188H30.5898H31.3183V9.56107V6.10338H29.57H27.8218V9.56107ZM32.4109 6.13241C32.3868 6.15372 32.3672 7.71187 32.3672 9.59499V13.0188H33.1248H33.8823V11.8492V10.6797H34.4819C35.2591 10.6797 35.5295 10.5765 35.7471 10.1967C35.8924 9.94299 35.8928 9.93903 35.8928 8.46783C35.8928 7.6568 35.8721 6.90811 35.8468 6.80402C35.7925 6.58069 35.5725 6.33693 35.3177 6.21779C35.1661 6.14691 34.9085 6.12916 33.7949 6.11304C33.0577 6.10236 32.435 6.11111 32.4109 6.13241ZM37.7868 6.15596C37.4427 6.21911 37.262 6.33972 37.102 6.61288L36.9709 6.83682V9.58649V12.3362L37.102 12.5601C37.3414 12.969 37.4153 12.9911 38.6045 13.0092C39.5345 13.0234 39.675 13.0144 39.903 12.9264C40.1053 12.8484 40.1879 12.776 40.2985 12.58L40.4382 12.3323V9.56107V6.78983L40.3063 6.57439C40.0888 6.21916 39.8419 6.14192 38.8648 6.12336C38.4161 6.11482 37.931 6.12952 37.7868 6.15596ZM41.5163 9.55985V13.0188H42.2739H43.0314L43.0332 10.845C43.0348 8.83826 43.0688 8.40813 43.173 9.07801C43.1947 9.21784 43.3553 10.1125 43.5299 11.0661C43.7044 12.0197 43.8473 12.8492 43.8473 12.9094C43.8473 13.0144 43.8718 13.0188 44.458 13.0188C45.0438 13.0188 45.07 13.0141 45.0984 12.9044C45.1388 12.748 45.3066 11.8362 45.6014 10.1713C45.7375 9.40217 45.8706 8.75116 45.897 8.72461C45.9235 8.69807 45.9451 9.65336 45.9451 10.8475V13.0188H46.7027H47.4603V9.56107V6.10338H46.5022C45.9752 6.10338 45.532 6.12057 45.5172 6.14152C45.5025 6.16247 45.3683 6.77458 45.2192 7.50171C45.0701 8.22884 44.8856 9.12123 44.8093 9.4848C44.7329 9.84836 44.6375 10.3232 44.5971 10.5399C44.5568 10.7566 44.5069 10.934 44.4862 10.934C44.4656 10.934 44.4157 10.7681 44.3754 10.5653C44.3351 10.3625 44.241 9.89921 44.1661 9.53565C44.0914 9.17208 43.9354 8.40554 43.8195 7.83223C43.7036 7.25891 43.5762 6.6411 43.5365 6.45932L43.4642 6.1288L42.4902 6.11487L41.5163 6.10094V9.55985ZM8.03761 6.20777C4.43636 6.5304 1.57881 8.87558 0.984006 11.9967C0.863961 12.6264 0.894846 13.9374 1.04345 14.5188C1.76372 17.3378 4.23386 19.4078 7.484 19.916C8.20812 20.0292 9.42833 20.0278 10.1646 19.9129C11.6545 19.6803 13.092 19.0628 14.1497 18.201L14.5935 17.8393V15.4799V13.1205H11.7089H8.82431V14.1689V15.2173L9.02926 15.0809C10.1214 14.354 11.726 14.6524 12.3669 15.7015C12.894 16.5645 12.6954 17.4357 11.8064 18.1601C11.0251 18.7968 9.92098 19.1718 8.82956 19.1711C5.32569 19.1688 3.19232 15.8745 4.98665 13.2369C5.26899 12.822 5.86461 12.2882 6.36565 12.0012C6.85458 11.7212 7.58709 11.4713 8.06674 11.421C8.24302 11.4025 8.48626 11.3748 8.60724 11.3594L8.82722 11.3314L8.8112 8.75553L8.79517 6.17965L8.64949 6.17284C8.56936 6.16908 8.29401 6.18479 8.03761 6.20777ZM20.6818 7.56527C20.7034 7.8939 20.7582 8.60893 20.8037 9.15428C20.8491 9.69963 20.8865 10.2202 20.8867 10.3111L20.8871 10.4763H20.562H20.2368L20.27 10.1585C20.2882 9.98377 20.3441 9.24581 20.3941 8.51868C20.4441 7.79155 20.4973 7.14516 20.5124 7.08221C20.5766 6.81327 20.6452 7.00879 20.6818 7.56527ZM34.3161 7.08084C34.3924 7.17587 34.4068 7.39813 34.4068 8.47917C34.4068 9.70944 34.4017 9.76894 34.2867 9.86926C34.2197 9.92769 34.1101 9.96709 34.039 9.95825C33.9115 9.94243 33.9115 9.94167 33.896 8.45512L33.8806 6.9678H34.053C34.1651 6.9678 34.2571 7.00731 34.3161 7.08084ZM38.8823 7.02882C38.983 7.11674 38.983 12.0054 38.8823 12.0933C38.7752 12.1867 38.5555 12.1659 38.4881 12.056C38.4489 11.9921 38.4277 11.1101 38.4277 9.54261C38.4277 7.41496 38.4386 7.11811 38.5193 7.04769C38.6284 6.95255 38.7855 6.94436 38.8823 7.02882ZM11.9441 8.06109C12.5054 9.36225 12.4358 10.9893 11.7714 12.0957L11.6941 12.2244L11.5923 12.0525C11.1003 11.2223 10.9147 9.91391 11.1487 8.9248C11.2526 8.48532 11.5133 7.82821 11.6385 7.69026C11.7221 7.59812 11.7689 7.65497 11.9441 8.06109ZM15.5841 17.6205V19.985H31.5805H47.5768V17.6205V15.2561H31.5805H15.5841V17.6205ZM17.6694 16.6926L17.686 17.2392H18.0919H18.4979V16.6798V16.1205H18.8184H19.1389V17.5951V19.0697H18.8184H18.4979V18.4087V17.7477H18.09H17.682V18.4087V19.0697H17.3324H16.9827V17.5926V16.1154L17.3178 16.1307L17.6529 16.1459L17.6694 16.6926ZM25.4908 16.3748V16.629H24.9081H24.3253V16.9341V17.2392H24.8498H25.3743V17.4934V17.7477H24.8498H24.3253V18.1799V18.6121H24.9081H25.4908V18.8409V19.0697H24.5876H23.6843V17.5951V16.1205H24.5876H25.4908V16.3748ZM31.8318 16.3112C31.8489 16.4654 31.8647 16.4764 32.0681 16.4764C32.2083 16.4764 32.3808 16.5288 32.5513 16.6232C32.9113 16.8224 33.077 17.1234 33.0795 17.5831C33.0834 18.2678 32.6767 18.7138 32.0485 18.7138C31.8522 18.7138 31.8427 18.722 31.8427 18.8917V19.0697H31.4931H31.1434V18.8917C31.1434 18.7169 31.1392 18.7138 30.9009 18.7138C30.5687 18.7138 30.2167 18.5244 30.0356 18.2484C29.8421 17.9535 29.8275 17.322 30.0071 17.0136C30.1812 16.7146 30.497 16.5177 30.8498 16.4881C31.1398 16.4638 31.1434 16.4613 31.1434 16.2895V16.1154L31.4785 16.1307C31.8098 16.1458 31.8138 16.1478 31.8318 16.3112ZM39.5058 16.3748V16.6036L39.1125 16.6186L38.7191 16.6336V17.8517V19.0697H38.3986H38.0781V17.8494V16.629H37.6702H37.2622V16.3736V16.1183L38.384 16.1321L39.5058 16.1459V16.3748ZM44.5466 16.6729V17.2252L44.9227 17.2516C45.3931 17.2845 45.6354 17.405 45.8097 17.6927C46.0569 18.1005 45.9411 18.7017 45.5658 18.9593C45.4197 19.0596 45.3365 19.0697 44.6552 19.0697H43.9055V17.5951V16.1205H44.226H44.5466V16.6729ZM30.7373 17.0595C30.6462 17.1441 30.5931 17.2675 30.5744 17.438C30.5196 17.9354 30.6856 18.2561 30.9977 18.2561H31.1434V17.5951C31.1434 16.9371 31.1428 16.9341 31.0079 16.9341C30.9334 16.9341 30.8116 16.9905 30.7373 17.0595ZM31.8427 17.5951V18.2561H31.9842C32.2985 18.2561 32.4916 17.7931 32.3666 17.3386C32.2957 17.0809 32.1431 16.9341 31.9463 16.9341C31.8523 16.9341 31.8427 16.9956 31.8427 17.5951ZM44.5589 18.1926L44.5757 18.6375L44.8322 18.6325C45.1493 18.6264 45.2458 18.5271 45.2458 18.2069C45.2458 17.8706 45.1274 17.7477 44.8032 17.7477H44.542L44.5589 18.1926Z" fill="white"/>
</svg>
