<svg width="92" height="20" viewBox="0 0 92 20" fill="none" xmlns="http://www.w3.org/2000/svg">
<g clip-path="url(#clip0_1277_4921)">
<path d="M60.1536 12.5232L58.7002 9.14696L57.2543 12.5232L57.1534 12.7528H60.247L60.1536 12.5232ZM59.6742 6.65642L64.0724 16.6665H61.9275L61.0216 14.5721H56.3938L56.3282 14.716L55.4779 16.6665H53.3911L57.8321 6.59839H59.6161L59.6742 6.65642ZM73.9437 13.5325L71.655 6.60091H69.9845L67.6959 13.5325L65.4779 6.60091H63.3053L66.8178 16.669H68.5059L70.7945 10.0554L73.0832 16.669H74.789L78.2939 6.60091H76.1718L73.9437 13.5325ZM81.9603 12.344H85.6822V10.5045H81.9603V8.43538H87.3577V6.60848H79.9467V16.669H87.5546V14.8346H81.9603V12.3365V12.344ZM89.9845 6.60848V16.6615H92.0032V6.60091L89.9845 6.60848ZM38.8011 10.6584H34.1884V6.60091H32.1445V16.6766H34.1884V12.5812H38.8011V16.6766H40.845V6.60091H38.8011V10.661V10.6584ZM50.3151 6.59839H52.3565V12.2835C52.3565 15.1702 50.7668 16.8255 47.9962 16.8255C45.2255 16.8255 43.6787 15.1979 43.6787 12.3642V6.60596H45.7226V12.2986C45.7226 13.9817 46.5503 14.8825 48.0264 14.8825C49.5026 14.8825 50.3151 14.0044 50.3151 12.3592V6.60091V6.59839Z" fill="white"/>
<path d="M15.7153 15.6043C15.7314 15.6149 15.7502 15.6206 15.7695 15.6206C15.7888 15.6206 15.8077 15.6149 15.8238 15.6043C16.9896 15.0214 21.847 12.5535 23.8556 10.5879C24.6364 9.90949 25.1172 8.94976 25.1929 7.91816C25.3368 5.64716 23.0405 3.51998 23.0405 3.51998C20.1324 7.20361 17.6615 11.2122 15.6774 15.4655C15.6718 15.4882 15.6721 15.5119 15.6783 15.5344C15.6844 15.557 15.6963 15.5775 15.7127 15.5942L15.7153 15.6043ZM26.876 10.2952C26.876 10.2952 19.952 14.0171 16.3688 16.4344C16.3504 16.4469 16.3364 16.4647 16.3287 16.4856C16.321 16.5064 16.32 16.5291 16.3259 16.5505C16.3259 16.5505 16.3612 16.6161 16.4117 16.6161C17.6936 16.6161 22.5434 16.6161 22.6721 16.601C23.1536 16.5662 23.6269 16.4572 24.0751 16.278C25.2481 15.8173 26.1902 14.9097 26.6943 13.7547C27.1737 12.6583 27.2374 11.4249 26.8735 10.2851L26.876 10.2952ZM16.5505 17.2217C16.5312 17.2254 16.5129 17.2332 16.4968 17.2445C16.4807 17.2558 16.4672 17.2704 16.4571 17.2873C16.4522 17.3063 16.4522 17.3262 16.4571 17.3451C16.4619 17.3641 16.4715 17.3816 16.4849 17.3958C17.2621 17.956 19.629 19.6113 20.7746 19.9192C20.7746 19.9192 22.8841 20.6383 24.711 17.4942L16.5581 17.2141L16.5505 17.2217ZM14.6227 14.9507C14.6439 14.959 14.6674 14.9592 14.6888 14.9513C14.7102 14.9434 14.728 14.9279 14.7387 14.9078C15.5159 13.7849 19.0486 8.54395 19.7602 5.36202C19.7602 5.36202 20.1488 3.82278 19.7753 2.77055C19.5791 2.15517 19.2287 1.60023 18.7575 1.15855C18.2862 0.716871 17.7097 0.403138 17.0829 0.247207C17.0829 0.247207 16.4647 0.0882367 15.8011 -0.00512695C15.8011 -0.00512695 13.3837 3.10363 14.5621 14.8498C14.5598 14.8696 14.5643 14.8896 14.5748 14.9066C14.5854 14.9236 14.6013 14.9364 14.6201 14.9431L14.6227 14.9507ZM11.9202 0.00244276C11.5669 0.0301995 10.6106 0.254777 10.6106 0.254777C9.98793 0.414126 9.41614 0.729391 8.94906 1.17086C8.48199 1.61233 8.13502 2.16546 7.94086 2.77812C7.54469 4.00951 7.94086 5.36959 7.94086 5.36959C8.66001 8.56414 12.2003 13.8253 12.9648 14.928C13.0153 14.986 13.0582 14.9633 13.0582 14.9633C13.0802 14.9569 13.0997 14.9437 13.1137 14.9256C13.1278 14.9075 13.1357 14.8853 13.1364 14.8624C14.3173 3.11624 11.9126 0.00748667 11.9126 0.00748667L11.9202 0.00244276ZM11.3827 16.5606C11.4256 16.495 11.3549 16.4395 11.3549 16.4395C7.77937 14.0221 0.840176 10.3078 0.840176 10.3078C0.610866 11.0125 0.547063 11.7605 0.653719 12.4939C0.760374 13.2272 1.03462 13.9261 1.45516 14.5363C1.8757 15.1465 2.43122 15.6516 3.07858 16.0123C3.72594 16.3729 4.44773 16.5796 5.18789 16.6161C5.30901 16.6388 10.0302 16.6161 11.2969 16.6161C11.3309 16.611 11.3617 16.5929 11.3827 16.5656V16.5606ZM11.2616 17.2924C11.2536 17.2703 11.2388 17.2512 11.2193 17.2381C11.1998 17.2249 11.1766 17.2183 11.1531 17.2192L3.0052 17.4993C3.8909 19.0764 5.37967 20.2977 6.92648 19.9242C7.99889 19.6567 10.4163 17.9661 11.2162 17.4009C11.2818 17.3504 11.2591 17.3075 11.2591 17.2999L11.2616 17.2924ZM12.0161 15.6169C12.0303 15.6048 12.0402 15.5884 12.0443 15.5702C12.0484 15.552 12.0465 15.5329 12.0388 15.5159C10.058 11.2454 7.58334 7.22182 4.66556 3.52755C4.66556 3.52755 2.34914 5.73043 2.51315 7.93835C2.55194 8.44748 2.69068 8.94398 2.92145 9.39947C3.15222 9.85495 3.4705 10.2605 3.85809 10.5929C5.87677 12.5636 10.7746 15.0542 11.9101 15.6244C11.9284 15.6317 11.9484 15.6334 11.9677 15.6293C11.987 15.6253 12.0047 15.6157 12.0186 15.6017" fill="white"/>
</g>
<defs>
<clipPath id="clip0_1277_4921">
<rect width="91.4005" height="20" fill="white" transform="translate(0.599609)"/>
</clipPath>
</defs>
</svg>
