<svg width="63" height="20" viewBox="0 0 63 20" fill="none" xmlns="http://www.w3.org/2000/svg">
<path d="M45.6129 1.61182H44.1621V11.4701H45.6129V1.61182Z" fill="white"/>
<path d="M48.0679 9.68823C47.5251 9.68823 47.0879 10.125 47.0879 10.6673C47.0879 11.2097 47.5251 11.6465 48.0679 11.6465C48.6108 11.6465 49.0479 11.2097 49.0479 10.6673C49.0479 10.125 48.6108 9.68823 48.0679 9.68823Z" fill="white"/>
<path d="M51.8828 8.03719C51.8828 6.86129 52.5889 5.85339 53.9581 5.85339H54.8228V4.48071H53.9581C52.8868 4.48071 52.3968 4.82148 51.8972 5.38783L51.8876 5.40223V4.48071H50.4512V11.4641H51.8828C51.8828 11.4593 51.8828 8.51234 51.8828 8.03719Z" fill="white"/>
<path d="M42.5856 4.48071H41.1348V11.4641H42.5856V4.48071Z" fill="white"/>
<path d="M41.8609 3.32492C42.4037 3.32492 42.8409 2.88816 42.8409 2.34581C42.8409 1.80346 42.3989 1.3667 41.8609 1.3667C41.318 1.3667 40.8809 1.80346 40.8809 2.34581C40.8809 2.88816 41.3228 3.32492 41.8609 3.32492Z" fill="white"/>
<path d="M38.1389 5.18854C37.5816 4.62219 36.7265 4.30542 35.8762 4.30542C33.8489 4.30542 32.2012 5.95167 32.2012 7.97708C32.2012 10.0025 33.8489 11.6487 35.8762 11.6487C36.7265 11.6487 37.6248 11.284 38.1389 10.708V11.4712H39.5656V4.483H38.1389V5.18854ZM35.9242 10.1897C34.6752 10.1897 33.724 9.22976 33.724 7.97708C33.724 6.7244 34.6752 5.77408 35.9242 5.77408C37.1733 5.77408 38.1581 6.6668 38.1581 7.97708C38.1581 9.28736 37.1733 10.1897 35.9242 10.1897Z" fill="white"/>
<path d="M58.8378 11.6465C59.4863 11.6465 60.3126 11.2961 60.8314 10.7009C60.8362 10.9649 60.8314 11.2049 60.8314 11.4641H62.2582V8.41635V4.48071H60.8266V8.31556C60.8266 9.30907 60.0676 10.2354 58.9291 10.2354C57.9346 10.2354 57.2285 9.51545 57.2285 8.48354V4.48551H55.7969V8.60353C55.8017 10.4466 56.7961 11.6465 58.8378 11.6465Z" fill="white"/>
<path d="M28.011 4.30542C27.0598 4.30542 26.1278 4.73738 25.561 5.41892C25.0422 4.73258 24.2879 4.30542 23.2743 4.30542C22.448 4.30542 21.8571 4.67499 21.5401 4.97256V4.483H20.1133V11.4663H21.5401V7.38193C21.5401 6.47002 22.2847 5.73089 23.1926 5.73089C24.1006 5.73089 24.8452 6.47482 24.8452 7.38193V11.4663H26.272V7.38193C26.272 6.47002 27.0166 5.73089 27.9245 5.73089C28.8325 5.73089 29.5771 6.47482 29.5771 7.38193V11.4663H31.0039V7.38193C31.0135 5.51011 29.7981 4.30542 28.011 4.30542Z" fill="white"/>
<path d="M46.852 14.6944L46.8424 14.704V14.1616H46.4245H46.0017H45.9297V18.2605H46.0017H46.8424C46.8424 18.2557 46.8424 16.619 46.8424 16.3406C46.8424 15.6495 47.2556 15.0591 48.0578 15.0591H48.5623V14.1616H48.0578C47.4333 14.1616 47.1451 14.3632 46.852 14.6944Z" fill="white"/>
<path d="M56.6665 16.4086C56.6665 17.0662 56.138 17.4597 55.624 17.4597C55.0812 17.4597 54.6969 17.0662 54.6969 16.5046V14.1672H53.7793V16.5718C53.7793 17.7093 54.4326 18.3668 55.5664 18.3668C55.9363 18.3668 56.3734 18.1797 56.6617 17.8965C56.6617 17.9685 56.6617 18.0405 56.6617 18.1125V18.2661H57.5744V14.1672H56.6569L56.6665 16.4086Z" fill="white"/>
<path d="M50.9412 14.0615C49.7547 14.0615 48.7891 15.0262 48.7891 16.2117C48.7891 17.3972 49.7547 18.3619 50.9412 18.3619C52.1278 18.3619 53.0934 17.3972 53.0934 16.2117C53.0934 15.0262 52.1326 14.0615 50.9412 14.0615ZM50.9412 17.45C50.2591 17.45 49.7018 16.8933 49.7018 16.2117C49.7018 15.5302 50.2591 14.9734 50.9412 14.9734C51.6234 14.9734 52.1807 15.5302 52.1807 16.2117C52.1807 16.8933 51.6282 17.45 50.9412 17.45Z" fill="white"/>
<path d="M60.654 14.0615C60.1832 14.0615 59.7268 14.2247 59.4049 14.5031V14.1623H58.4922V19.6722H59.4049V17.8964C59.7124 18.1843 60.188 18.3667 60.654 18.3667C61.8406 18.3667 62.8062 17.402 62.8062 16.2165C62.8062 15.0262 61.8406 14.0615 60.654 14.0615ZM60.6252 17.4308C59.9094 17.4308 59.3905 16.9173 59.3905 16.2117C59.3905 15.5062 59.9094 14.9974 60.6252 14.9974C61.3169 14.9974 61.8406 15.5206 61.8406 16.2117C61.8406 16.9077 61.3169 17.4308 60.6252 17.4308Z" fill="white"/>
<path d="M44.1082 14.5031C43.7863 14.2247 43.33 14.0615 42.8592 14.0615C41.6726 14.0615 40.707 15.0262 40.707 16.2117C40.707 17.3972 41.6726 18.3619 42.8592 18.3619C43.3252 18.3619 43.8007 18.1795 44.1082 17.8916V17.9732C44.0938 18.8131 43.6855 19.2402 42.888 19.2402H42.8784C42.4268 19.2402 42.0281 19.0675 41.6582 18.7075L41.6246 18.6739L40.9616 19.3074L40.9905 19.341C41.3315 19.7394 42.0233 20.1954 42.8544 20.1954C42.8688 20.1954 42.8832 20.1954 42.8976 20.1954C43.6758 20.181 44.9825 19.8786 45.0209 18.0068V14.1575H44.1082V14.5031ZM42.888 17.4308C42.1962 17.4308 41.6726 16.9077 41.6726 16.2117C41.6726 15.5206 42.1962 14.9974 42.888 14.9974C43.6038 14.9974 44.1226 15.5062 44.1226 16.2117C44.1178 16.9173 43.6038 17.4308 42.888 17.4308Z" fill="white"/>
<path d="M10.5062 7.85134C10.5062 9.12322 9.47338 10.1551 8.20033 10.1551C6.92728 10.1551 5.89443 9.12322 5.89443 7.85134C5.89443 6.57946 6.92728 5.54755 8.20033 5.54755C9.47338 5.54755 10.5062 6.58425 10.5062 7.85134ZM8.20033 0.196045C3.97284 0.196045 0.533203 3.63253 0.533203 7.85614C0.533203 12.0797 3.97284 15.5114 8.20033 15.5114C9.74721 15.5114 11.2412 15.0507 12.5191 14.1772L12.5431 14.1628L11.5103 12.9629L11.491 12.9725C10.5062 13.6012 9.3725 13.9372 8.20033 13.9372C4.84236 13.9372 2.1089 11.2062 2.1089 7.85134C2.1089 4.49645 4.84236 1.7655 8.20033 1.7655C11.5583 1.7655 14.2918 4.49645 14.2918 7.85134C14.2918 8.2881 14.2437 8.72486 14.1476 9.16162C13.9555 9.95354 13.403 10.1935 12.9851 10.1599C12.5671 10.1263 12.0771 9.82876 12.0723 9.09922V7.85134C12.0723 5.71553 10.3333 3.9781 8.19553 3.9781C6.05776 3.9781 4.31873 5.71553 4.31873 7.85134C4.31873 9.98714 6.05776 11.7246 8.19553 11.7246C9.23318 11.7246 10.2084 11.3166 10.9434 10.5823C11.3709 11.2446 12.0675 11.6622 12.8602 11.7246C12.9274 11.7294 12.9995 11.7342 13.0667 11.7342C13.624 11.7342 14.1765 11.547 14.6232 11.211C15.0844 10.8607 15.4255 10.3567 15.6129 9.75196C15.6417 9.65597 15.6993 9.43039 15.6993 9.43039V9.42079C15.8098 8.93604 15.8627 8.45128 15.8627 7.85134C15.8675 3.63253 12.4278 0.196045 8.20033 0.196045Z" fill="white"/>
</svg>
