<svg width="89" height="30" viewBox="0 0 89 30" fill="none" xmlns="http://www.w3.org/2000/svg">
<path fill-rule="evenodd" clip-rule="evenodd" d="M9.1633 6.90185V13.6976H10.4813H11.7993V6.90185V0H10.4813H9.1633V6.90185ZM6.15071 9.72533V16.493H7.46871H8.78672V9.72533V2.88623H7.46871H6.15071V9.72533ZM12.3014 9.72972V16.5017H13.5828H14.8747L14.9099 9.69396L14.9452 2.88623H13.6233H12.3014V9.72972ZM3.13812 11.7625V17.8868L4.36424 19.1079C5.03856 19.7796 5.62903 20.3291 5.67622 20.3291C5.72342 20.3291 5.75066 17.0398 5.73673 13.0194L5.71137 5.70971L4.42474 5.67394L3.13812 5.63818V11.7625ZM15.314 13.0287V20.3873L16.6331 19.0731L17.9524 17.7587L17.9198 11.7341L17.8873 5.70971L16.6006 5.68988L15.314 5.67005V13.0287ZM0 8.4375C0 8.4375 0 10.1524 0 11.9269V15.1532L1.03658 16.0784C1.60671 16.5873 2.19982 17.1112 2.35459 17.2427L2.63602 17.4817V13.0201V8.45134L1.25 8.4375C0.572293 8.42934 0 8.4375 0 8.4375ZM18.3978 8.4375V17.4428C18.3978 17.4428 19.0289 16.9487 19.7133 16.3448L20.9576 15.2468L20.9601 11.885V8.4375H19.6875H18.3978ZM18.3266 26.5297V29.8662H19.3308H20.335V28.7368V27.6074L22.3748 27.5978C24.687 27.5871 25.1535 27.479 25.5756 26.8571C25.8096 26.5124 25.8581 26.2707 25.8581 25.4492C25.8581 24.2955 25.6681 23.8252 25.0714 23.5012C24.7218 23.3113 24.2264 23.2747 21.4961 23.237L18.3266 23.1931V26.5297ZM28.243 23.3565C27.6586 23.5298 27.2658 23.9139 27.1138 24.4609C27.0453 24.7076 26.9889 25.7 26.9887 26.6662C26.9882 28.607 27.1106 29.0514 27.7814 29.5435C28.1136 29.7872 28.3028 29.8034 30.816 29.8034C33.338 29.8034 33.5173 29.788 33.8508 29.5412C34.5048 29.0575 34.5824 28.7378 34.5785 26.5407C34.5731 23.3724 34.491 23.2969 31.0046 23.2546C29.6758 23.2384 28.4945 23.2821 28.243 23.3565ZM36.8415 23.399C35.7686 23.7889 35.5852 24.3633 35.6745 27.0531C35.7372 28.9408 35.8478 29.2312 36.6621 29.6463C37.3006 29.9718 41.6543 29.9718 42.2929 29.6463C42.9499 29.3115 43.1861 28.901 43.2166 28.0416L43.2432 27.2937H42.2402H41.2371L41.1726 27.6667C41.0833 28.1822 40.6668 28.3563 39.517 28.3584C38.4348 28.3606 37.9849 28.2365 37.853 27.8994C37.8036 27.7733 37.7681 27.1376 37.7741 26.4868C37.7888 24.8848 37.8271 24.8466 39.4239 24.8466C40.098 24.8466 40.736 24.8799 40.8419 24.9204C40.9478 24.9611 41.0988 25.1892 41.1775 25.4275L41.3204 25.8607L42.2818 25.8242L43.2432 25.7878L43.2278 25.1536C43.2085 24.3608 42.9191 23.7868 42.3938 23.4998C41.8336 23.1937 37.6167 23.1172 36.8415 23.399ZM44.3966 23.3873C44.3581 23.4874 44.3212 24.9861 44.3146 26.7178L44.3024 29.8662H45.3733H46.4441V28.6217C46.4441 27.9196 46.4978 27.359 46.5674 27.3354C46.6352 27.3125 47.3977 27.311 48.262 27.3322L49.8333 27.3707V28.6184V29.8662H50.9024H51.9713L51.9379 26.5721L51.9044 23.278H50.9002H49.896L49.8866 24.5117L49.8772 25.7453L48.2085 25.7412C47.2908 25.739 46.5236 25.7203 46.5036 25.6997C46.4836 25.6791 46.448 25.1259 46.4243 24.4702L46.3813 23.278L45.4238 23.2417C44.6787 23.2134 44.4509 23.2457 44.3966 23.3873ZM54.4149 23.3319C53.1946 23.6263 53.0341 23.9992 53.0341 26.5407C53.0341 28.7364 53.1125 29.058 53.7648 29.5412C54.099 29.7887 54.3018 29.8057 57.3737 29.8425L60.6284 29.8816V29.1209V28.3603H58.2493C56.6985 28.3603 55.7579 28.3091 55.5475 28.2134C55.2529 28.0791 54.9876 27.5578 55.1374 27.4079C55.1717 27.3736 56.4071 27.3339 57.8827 27.3196L60.5656 27.2937V26.5407V25.7878L58.1807 25.7625C56.8689 25.7485 55.6403 25.7343 55.4505 25.7311C55.0415 25.7239 54.978 25.3772 55.3276 25.0609C55.5126 24.8934 55.9702 24.8534 58.0578 24.8218L60.5656 24.7839L60.603 23.9996L60.6403 23.2153L57.716 23.2281C56.1075 23.2353 54.622 23.2819 54.4149 23.3319ZM66.277 23.8427V24.4702L64.4883 24.4707C62.5227 24.4712 62.1444 24.5832 61.6711 25.3053C61.3363 25.816 61.3552 27.2176 61.7031 27.6841C62.2959 28.4789 62.4964 28.5448 64.4658 28.5917L66.277 28.6349V29.2505V29.8662H67.2747H68.2722L68.3102 29.2198L68.3482 28.5735L69.9318 28.5876C71.3339 28.6 71.5783 28.5698 72.0629 28.324C72.8048 27.948 73.1176 27.3813 73.0961 26.4518C73.0762 25.5811 72.7389 24.9633 72.1243 24.6717C71.7988 24.5174 71.3 24.4702 69.9924 24.4702H68.2854V23.8427V23.2153H67.2812H66.277V23.8427ZM73.0553 24.0381V24.861L74.3419 24.837L75.6286 24.813L75.6626 27.3396L75.6965 29.8662H76.7609H77.8253V27.3564V24.8466L79.1119 24.8318C79.8196 24.8236 80.4408 24.8236 80.4927 24.8318C80.5445 24.84 80.5868 24.4796 80.5868 24.031V23.2153H76.8211H73.0553V24.0381ZM81.4655 26.5407V29.8662L84.5094 29.8634C87.2138 29.861 87.6113 29.8344 88.0716 29.6255C88.7597 29.313 89.0499 28.6064 88.9747 27.4259C88.9166 26.5149 88.6565 26.0397 88.0442 25.7263C87.7211 25.561 86.2945 25.4772 83.7563 25.4745C83.4844 25.4741 83.4739 25.4322 83.4739 24.3447V23.2153H82.4697H81.4655V26.5407ZM23.699 24.9972C23.9103 25.2084 23.8866 25.6703 23.6525 25.9044C23.4943 26.0625 23.146 26.1015 21.8951 26.1015H20.335V25.4741V24.8466H21.9417C23.024 24.8466 23.5976 24.8958 23.699 24.9972ZM32.2598 24.9692C32.396 25.0551 32.4654 25.4027 32.5109 26.2245C32.5876 27.6133 32.4831 28.0783 32.0585 28.2398C31.6542 28.3934 29.9866 28.3966 29.5863 28.2445C29.1621 28.0832 29.0974 27.8413 29.1148 26.4834C29.1354 24.8743 29.1645 24.846 30.8044 24.8485C31.5013 24.8497 32.1563 24.9039 32.2598 24.9692ZM66.277 26.5407V27.2309H65.1562C63.9357 27.2309 63.641 27.0966 63.641 26.5407C63.641 25.9848 63.9357 25.8505 65.1562 25.8505H66.277V26.5407ZM70.7242 26.0477C70.8327 26.1562 70.9214 26.3781 70.9214 26.5407C70.9214 27.0966 70.6267 27.2309 69.4062 27.2309H68.2854V26.5407V25.8505H69.4062C70.2576 25.8505 70.5743 25.898 70.7242 26.0477ZM86.9147 27.5095C87.0094 27.7796 86.9863 27.9039 86.8037 28.1056C86.5957 28.3353 86.4213 28.3603 85.0235 28.3603H83.4739V27.7412C83.4739 27.003 83.4554 27.0089 85.4798 27.1054C86.7752 27.1672 86.797 27.1733 86.9147 27.5095Z" fill="white"/>
<path d="M6.15071 30V24.1707V17.3316H7.46871H8.78672V24.1707V30H7.46871H6.15071Z" fill="white"/>
<path d="M12.2387 30V24.1707V17.3316H13.5567H14.8747V24.1707V30H13.5567H12.2387Z" fill="white"/>
<path d="M9.1633 30V24.1707V14.5362H10.4813H11.7993V24.1707V30H10.4813H9.1633Z" fill="white"/>
</svg>
