<svg width="148" height="20" viewBox="0 0 148 20" fill="none" xmlns="http://www.w3.org/2000/svg">
<path d="M20.3739 3.85132C20.9142 4.46008 21.3716 5.12145 21.7368 5.82215L11.3767 12.478L7.04688 10.1126V7.2668L11.3767 9.63225L20.3739 3.85132Z" fill="white"/>
<path d="M2.62754 9.91167C2.62754 9.78398 2.63112 9.65713 2.63826 9.53101L0.0142906 9.41895C0.00535946 9.5824 3.17095e-06 9.74743 3.17095e-06 9.91398C-0.00111326 11.2153 0.292585 12.504 0.864257 13.7061C1.43592 14.9083 2.27431 16.0002 3.33132 16.9193L5.19257 15.298C4.37892 14.5917 3.73345 13.7523 3.29325 12.8279C2.85306 11.9036 2.62682 10.9125 2.62754 9.91167Z" fill="white"/>
<path d="M11.3746 2.28964C11.521 2.28964 11.6665 2.29431 11.8112 2.30053L11.9425 0.0129031C11.7544 0.00511943 11.5651 0.00122805 11.3746 0.00122805C9.88067 -0.000359631 8.40124 0.255236 7.02107 0.753338C5.6409 1.25144 4.38723 1.98224 3.33203 2.90377L5.19328 4.5259C6.00368 3.81655 6.96697 3.2538 8.02778 2.87003C9.08859 2.48625 10.2259 2.28901 11.3746 2.28964Z" fill="white"/>
<path d="M11.3736 17.5345C11.2271 17.5345 11.0815 17.5345 10.936 17.5244L10.8047 19.8113C10.9934 19.8196 11.1831 19.8237 11.3736 19.8237C12.8668 19.8251 14.3456 19.5693 15.725 19.0711C17.1044 18.5728 18.3573 17.8419 19.4117 16.9204L17.554 15.2991C16.7434 16.008 15.7802 16.5705 14.7196 16.9541C13.659 17.3377 12.5219 17.535 11.3736 17.5345Z" fill="white"/>
<path d="M16.3047 3.61944L18.516 2.19891C16.4949 0.772515 13.9719 -0.00395952 11.3711 1.5184e-05V2.2892C13.1322 2.2873 14.8525 2.75114 16.3047 3.61944Z" fill="white"/>
<path d="M22.7461 9.91198C22.7475 9.31647 22.6878 8.72198 22.5675 8.13574L20.1195 9.70805C20.1195 9.7758 20.1195 9.8435 20.1195 9.91198C20.1201 10.977 19.8639 12.0303 19.3676 13.0035C18.8713 13.9767 18.1458 14.8482 17.2383 15.5614L19.004 17.2622C20.1838 16.3339 21.1267 15.1999 21.7713 13.9337C22.416 12.6674 22.7481 11.2973 22.7461 9.91198Z" fill="white"/>
<path d="M11.3731 17.5345C10.151 17.5348 8.94242 17.3115 7.82558 16.879C6.7088 16.4464 5.70868 15.8142 4.89001 15.0234L2.93945 16.5615C4.00445 17.5899 5.30559 18.4117 6.75848 18.9737C8.21137 19.5357 9.78355 19.8253 11.3731 19.8236V17.5345Z" fill="white"/>
<path d="M5.50874 4.26226L3.74394 2.56152C2.56375 3.48963 1.62059 4.62357 0.975602 5.8898C0.330626 7.15602 -0.00175843 8.52626 6.9959e-06 9.91166H2.62755C2.62701 8.84669 2.88321 7.79341 3.37954 6.8202C3.87587 5.84702 4.60127 4.97554 5.50874 4.26226Z" fill="white"/>
<path d="M65.6351 5.66836L68.8893 3.60254H57.998V16.0164H68.8893V13.9505H61.1058V10.7707H67.7455V8.7049H61.1058V5.66836H65.6351Z" fill="white"/>
<path d="M50.6703 8.43855H46.8891V5.66756H52.9237L56.176 3.59546H43.7832V16.0093H50.2703C53.9073 16.0093 55.9946 14.5889 55.9946 12.1118C55.9946 9.74207 54.104 8.43855 50.6703 8.43855ZM50.1304 13.9428H46.8891V10.5031H50.1304C52.0976 10.5031 53.0199 11.0795 53.0199 12.223C53.0199 13.3664 52.0385 13.9428 50.1304 13.9428Z" fill="white"/>
<path d="M76.8953 3.60083H70.9668V16.0146H74.0741V12.498H76.8953C80.6777 12.498 83.0175 10.783 83.0175 8.04278C83.0175 5.30262 80.6777 3.60083 76.8953 3.60083ZM76.8297 10.4306H74.0741V5.66823H76.8297C78.8193 5.66823 79.9173 6.51442 79.9173 8.05036C79.9173 9.5863 78.8193 10.4306 76.8297 10.4306Z" fill="white"/>
<path d="M39.1195 13.085C38.3167 13.4596 37.4174 13.6535 36.5047 13.6489C33.7727 13.6489 31.7909 11.9684 31.7909 9.65423C31.7909 7.34005 33.7727 5.65586 36.5047 5.65586C37.4899 5.64144 38.4546 5.89886 39.258 6.39054L41.4316 5.0112L41.2846 4.92121C40.0166 3.96065 38.3225 3.4519 36.3832 3.4519C34.2799 3.4519 32.3726 4.06166 31.0109 5.17099C30.3224 5.74217 29.7779 6.4295 29.4112 7.19011C29.0445 7.95072 28.8636 8.76823 28.8799 9.59175C28.8653 10.4236 29.0454 11.2495 29.4093 12.0201C29.7733 12.7907 30.3136 13.4902 30.9981 14.0768C32.3662 15.2302 34.2692 15.8657 36.3577 15.8657C38.5398 15.8657 40.4471 15.21 41.7385 14.0162L39.7929 12.7673L39.1195 13.085Z" fill="white"/>
<path d="M95.3388 8.43855H91.5592V5.66756H99.6816V3.59546H88.4512V16.0093H94.9301C98.5666 16.0093 100.654 14.5889 100.654 12.1118C100.663 9.74207 98.7724 8.43855 95.3388 8.43855ZM94.799 13.9428H91.5592V10.5031H94.799C96.766 10.5031 97.6878 11.0795 97.6878 12.223C97.6878 13.3664 96.7152 13.9428 94.799 13.9428Z" fill="white"/>
<path d="M135.982 15.9915H132.832V3.57764H135.982V8.79151H137.697L142.327 3.57764H145.898L140.405 9.48303L146.783 15.9915H142.603L137.915 11.1092H135.982V15.9915Z" fill="white"/>
<path d="M112.1 13.6323H105.435L104.306 16.0429H100.953L107.204 3.62915H110.556L116.705 16.0429H113.229L112.1 13.6323ZM111.056 11.3831L108.787 6.56178L106.506 11.3831H111.056Z" fill="white"/>
<path d="M120.946 3.62915V8.81293H127.465V3.62915H130.713V16.0429H127.465V11.1515H120.946V16.0429H117.697V3.62915H120.946Z" fill="white"/>
</svg>
