<svg width="79" height="14" viewBox="0 0 79 14" fill="none" xmlns="http://www.w3.org/2000/svg">
<path fill-rule="evenodd" clip-rule="evenodd" d="M78.0484 1.1385V3.47006C76.8405 3.01406 75.765 2.7835 74.8238 2.7835C74.2663 2.7835 73.8223 2.88674 73.4885 3.08634C73.1547 3.28766 72.9843 3.53546 72.9843 3.82798C72.9843 4.21686 73.3611 4.5627 74.12 4.87246L76.3122 5.9393C78.0845 6.78418 78.9638 7.90606 78.9638 9.31534C78.9638 10.4871 78.4975 11.4215 77.5563 12.1132C76.6219 12.8119 75.3641 13.1577 73.7982 13.1577C73.0755 13.1577 72.4268 13.1267 71.8504 13.0613C71.274 12.9994 70.6115 12.8721 69.8767 12.6897V10.2497C71.224 10.7057 72.4509 10.9363 73.5556 10.9363C74.8737 10.9363 75.5293 10.5543 75.5293 9.78338C75.5293 9.39966 75.2608 9.08994 74.7154 8.8473L72.2805 7.8097C71.3823 7.40362 70.7147 6.9115 70.2776 6.32818C69.8475 5.7397 69.6289 5.06518 69.6289 4.2943C69.6289 3.21538 70.0832 2.34642 70.9814 1.68566C71.8865 1.03006 73.0876 0.701416 74.5811 0.701416C75.0664 0.701416 75.6256 0.744416 76.2451 0.823576C76.8697 0.907896 77.4702 1.01114 78.0484 1.1385Z" fill="white"/>
<path fill-rule="evenodd" clip-rule="evenodd" d="M9.08815 1.1385V3.47006C7.88019 3.01406 6.80647 2.7835 5.86523 2.7835C5.30599 2.7835 4.86379 2.88674 4.52995 3.08634C4.19615 3.28766 4.02579 3.53546 4.02579 3.82798C4.02579 4.21686 4.40779 4.5627 5.16663 4.87246L7.35883 5.9393C9.12427 6.78418 10.0053 7.90606 10.0053 9.31534C10.0053 10.4871 9.53727 11.4215 8.60291 12.1132C7.66167 12.8119 6.41071 13.1577 4.83971 13.1577C4.11699 13.1577 3.46655 13.1267 2.89011 13.0613C2.31367 12.9994 1.65807 12.8721 0.918188 12.6897V10.2497C2.27067 10.7057 3.49755 10.9363 4.59535 10.9363C5.91343 10.9363 6.56903 10.5543 6.56903 9.78338C6.56903 9.39966 6.30231 9.08994 5.76199 8.8473L3.32719 7.8097C2.42207 7.40362 1.75443 6.9115 1.32427 6.32818C0.887188 5.7397 0.673828 5.06518 0.673828 4.2943C0.673828 3.21538 1.12467 2.34642 2.02803 1.68566C2.92627 1.03006 4.12903 0.701416 5.62263 0.701416C6.11303 0.701416 6.66539 0.744416 7.29171 0.823576C7.91119 0.907896 8.51171 1.01114 9.08815 1.1385Z" fill="white"/>
<path fill-rule="evenodd" clip-rule="evenodd" d="M11.5996 0.919922H15.1701V12.9392H11.5996V0.919922Z" fill="white"/>
<path fill-rule="evenodd" clip-rule="evenodd" d="M26.6748 0.919922V3.1414H21.3698V5.80676H25.9711V7.80968H21.3698V10.6076H26.7832V12.9392H17.9336V0.919922H26.6748Z" fill="white"/>
<path fill-rule="evenodd" clip-rule="evenodd" d="M43.3423 0.919922V12.9392H40.0091V5.0118L36.5507 13.0493H34.4927L31.1666 5.0118V12.9392H28.7559V0.919922H33.1144L36.0895 8.27772L39.2023 0.919922H43.3423Z" fill="white"/>
<path fill-rule="evenodd" clip-rule="evenodd" d="M54.8408 0.919922V3.1414H49.5648V5.80676H54.166V7.80968H49.5648V10.6076H54.9492V12.9392H46.0996V0.919922H54.8408Z" fill="white"/>
<path fill-rule="evenodd" clip-rule="evenodd" d="M67.3683 0.919922V12.9392H63.5811L59.3311 5.23032V12.9392H56.9219V0.919922H60.8195L64.9595 8.49628V0.919922H67.3683Z" fill="white"/>
</svg>
