<svg width="24" height="24" viewBox="0 0 24 24" fill="none" xmlns="http://www.w3.org/2000/svg">
<path d="M18.3534 16.0002C17.9044 16.0019 17.4603 16.0943 17.0479 16.2719C16.6355 16.4494 16.2632 16.7085 15.9534 17.0335L7.82671 12.9668C8.02662 12.3607 8.02662 11.7063 7.82671 11.1002L15.9667 6.96016C16.5498 7.57458 17.3404 7.95027 18.185 8.0142C19.0297 8.07813 19.8679 7.82574 20.5368 7.30609C21.2057 6.78644 21.6574 6.03664 21.8043 5.20244C21.9512 4.36825 21.7826 3.50924 21.3314 2.79238C20.8802 2.07553 20.1786 1.55204 19.363 1.32367C18.5473 1.0953 17.6759 1.17836 16.918 1.5567C16.1602 1.93505 15.5701 2.58165 15.2625 3.37083C14.9548 4.16001 14.9516 5.03539 15.2534 5.82683L7.19338 9.92683C6.75808 9.39446 6.16878 9.00975 5.50626 8.82545C4.84373 8.64114 4.14042 8.66625 3.49273 8.89734C2.84505 9.12843 2.28468 9.55418 1.88846 10.1162C1.49223 10.6783 1.27954 11.3491 1.27954 12.0368C1.27954 12.7245 1.49223 13.3954 1.88846 13.9574C2.28468 14.5195 2.84505 14.9452 3.49273 15.1763C4.14042 15.4074 4.84373 15.4325 5.50626 15.2482C6.16878 15.0639 6.75808 14.6792 7.19338 14.1468L15.2334 18.1935C15.0975 18.5583 15.0276 18.9443 15.0267 19.3335C15.0267 19.9928 15.2222 20.6372 15.5885 21.1854C15.9548 21.7336 16.4753 22.1608 17.0844 22.4131C17.6935 22.6654 18.3637 22.7314 19.0103 22.6028C19.6569 22.4742 20.2509 22.1567 20.7171 21.6905C21.1832 21.2243 21.5007 20.6304 21.6293 19.9838C21.7579 19.3372 21.6919 18.667 21.4396 18.0579C21.1874 17.4488 20.7601 16.9282 20.2119 16.5619C19.6638 16.1957 19.0193 16.0002 18.36 16.0002H18.3534Z" fill="white"/>
</svg>
