<svg width="22" height="22" viewBox="0 0 22 22" fill="none" xmlns="http://www.w3.org/2000/svg">
<path d="M19.5553 0H2.4442C1.09976 0 -0.000244141 1.1 -0.000244141 2.44444V19.5556C-0.000244141 20.9012 1.09976 22 2.4442 22H10.9998V13.4444H8.55531V10.4194H10.9998V7.91389C10.9998 5.269 12.4811 3.41122 15.6026 3.41122L17.8063 3.41367V6.59756H16.3433C15.1284 6.59756 14.6664 7.50933 14.6664 8.35511V10.4207H17.8051L17.1109 13.4444H14.6664V22H19.5553C20.8998 22 21.9998 20.9012 21.9998 19.5556V2.44444C21.9998 1.1 20.8998 0 19.5553 0Z" fill="#009FAC"/>
</svg>
