<svg width="24" height="24" viewBox="0 0 24 24" fill="none" xmlns="http://www.w3.org/2000/svg">
<path d="M16.1248 12C16.1248 10.8542 15.7237 9.88021 14.9216 9.07812C14.1195 8.27604 13.1456 7.875 11.9998 7.875C10.8539 7.875 9.87996 8.27604 9.07788 9.07812C8.2758 9.88021 7.87476 10.8542 7.87476 12C7.87476 13.1458 8.2758 14.1198 9.07788 14.9219C9.87996 15.724 10.8539 16.125 11.9998 16.125C13.1456 16.125 14.1195 15.724 14.9216 14.9219C15.7237 14.1198 16.1248 13.1458 16.1248 12ZM0.999756 10.625V20.25C0.999756 21.0091 1.26831 21.6572 1.80542 22.1943C2.34253 22.7314 2.99064 23 3.74976 23H20.2498C21.0089 23 21.657 22.7314 22.1941 22.1943C22.7312 21.6572 22.9998 21.0091 22.9998 20.25V3.75C22.9998 2.99089 22.7312 2.34277 22.1941 1.80566C21.657 1.26855 21.0089 1 20.2498 1H3.74976C2.99064 1 2.34253 1.26855 1.80542 1.80566C1.26831 2.34277 0.999756 2.99089 0.999756 3.75V7.875H6.49976C7.14429 7.02995 7.94637 6.36035 8.90601 5.86621C9.86564 5.37207 10.8969 5.125 11.9998 5.125C13.1026 5.125 14.1339 5.37207 15.0935 5.86621C16.0531 6.36035 16.8552 7.02995 17.4998 7.875H22.9998V10.625H18.7458C18.8318 11.0833 18.8748 11.5417 18.8748 12C18.8748 13.2461 18.5668 14.3955 17.9509 15.4482C17.335 16.501 16.5007 17.3353 15.448 17.9512C14.3953 18.5671 13.2459 18.875 11.9998 18.875C10.7537 18.875 9.60425 18.5671 8.55151 17.9512C7.49878 17.3353 6.66447 16.501 6.04858 15.4482C5.4327 14.3955 5.12476 13.2461 5.12476 12C5.12476 11.5417 5.16772 11.0833 5.25366 10.625H0.999756Z" fill="#009FAC"/>
</svg>
