<svg width="22" height="22" viewBox="0 0 22 22" fill="none" xmlns="http://www.w3.org/2000/svg">
<path d="M21.9998 19.5556V2.44444C21.9998 1.1 20.8961 0 19.5492 0H2.45031C1.04476 0 -0.000244141 1.04256 -0.000244141 2.44444V19.5556C-0.000244141 20.9587 1.04476 22 2.45031 22H19.5492C20.1978 21.999 20.8196 21.7414 21.2788 21.2833C21.738 20.8253 21.9972 20.2041 21.9998 19.5556ZM17.3358 12.9641C17.3358 12.9641 18.7193 14.3293 19.0603 14.9624C19.0701 14.9759 19.0738 14.9881 19.0774 14.993C19.2155 15.2252 19.251 15.4086 19.1813 15.543C19.0664 15.7667 18.6753 15.8791 18.5421 15.8889H16.0989C15.9278 15.8889 15.5733 15.8449 15.1431 15.5479C14.8131 15.3181 14.4868 14.938 14.169 14.5677C13.6948 14.0177 13.2841 13.541 12.871 13.541C12.8186 13.5409 12.7665 13.5496 12.717 13.5667C12.4029 13.6669 12.0044 14.113 12.0044 15.3047C12.0044 15.6774 11.7111 15.8901 11.5033 15.8901H10.3838C10.0024 15.8901 8.01631 15.7569 6.25753 13.9003C4.09909 11.627 2.16064 7.06689 2.14353 7.02656C2.02131 6.732 2.27431 6.57189 2.54931 6.57189H5.0182C5.34942 6.57189 5.45576 6.77233 5.53153 6.952C5.61709 7.15611 5.93976 7.97989 6.46776 8.90633C7.32698 10.4133 7.8562 11.0269 8.27787 11.0269C8.35671 11.0264 8.43413 11.0058 8.50276 10.967C9.05398 10.6627 8.95131 8.69733 8.92687 8.29156C8.92687 8.21456 8.92564 7.41278 8.64453 7.02778C8.44164 6.74911 8.0982 6.64278 7.89042 6.60244C7.97515 6.4857 8.08664 6.39098 8.21553 6.32622C8.5932 6.138 9.27398 6.11111 9.95109 6.11111H10.3275C11.0621 6.12089 11.2528 6.16856 11.518 6.23578C12.0545 6.36411 12.0655 6.71244 12.0179 7.898C12.0044 8.23533 11.9898 8.61789 11.9898 9.06644C11.9898 9.163 11.9861 9.26933 11.9861 9.37933C11.969 9.98556 11.9494 10.6712 12.3772 10.9523C12.4326 10.987 12.4964 11.0056 12.5618 11.0061C12.7109 11.0061 13.157 11.0061 14.3658 8.932C14.8974 8.01655 15.3069 6.93611 15.335 6.85544C15.3777 6.76823 15.4395 6.69177 15.5159 6.63178C15.5785 6.59926 15.6482 6.58288 15.7188 6.58411H18.6215C18.9393 6.58411 19.1544 6.63178 19.1948 6.75278C19.2644 6.94711 19.1813 7.53989 17.8552 9.33167L17.2649 10.1139C16.0622 11.6881 16.0622 11.7688 17.3358 12.9641Z" fill="#009FAC"/>
</svg>
