<svg width="215" height="287" viewBox="0 0 215 287" fill="none" xmlns="http://www.w3.org/2000/svg">
<rect width="215" height="286" rx="10" fill="#E0F0FF"/>
<path fill-rule="evenodd" clip-rule="evenodd" d="M205 286.187C210.523 286.187 215 281.71 215 276.187V248.743C215 246.145 214.031 243.595 212.008 241.965C210.105 240.431 207.999 239.072 205.689 237.88C187.705 228.673 169.052 221.015 150.211 213.789C148.816 213.262 147.127 212.204 146.571 210.945C145.083 207.646 144.02 204.159 142.958 200.678L142.872 200.394L142.824 200.236C142.149 198.027 141.514 195.951 139.059 194.873C138.383 194.6 137.785 193.277 137.802 192.439C137.826 190.772 137.767 189.089 137.709 187.406C137.476 180.729 137.244 174.044 142.132 168.284C142.269 168.136 142.341 167.946 142.412 167.756C142.45 167.656 142.488 167.555 142.536 167.46C143.857 164.556 144.744 161.486 145.631 158.416L145.632 158.416C146.956 153.834 148.28 149.251 151.046 145.219C151.156 145.078 151.206 144.841 151.223 144.646C151.776 139.518 152.324 134.385 152.76 129.246C152.806 128.599 152.232 127.47 151.694 127.279C149.26 126.41 149.276 124.534 149.292 122.579C149.293 122.481 149.293 122.383 149.294 122.285C149.301 112.236 149.294 102.202 149.283 92.1633C149.276 86.3307 147.559 81.1348 143.148 77.1733C138.489 72.9719 133.695 68.908 128.906 64.8482L128.905 64.8474L127.815 63.9234C125.32 61.8295 125.093 60.1954 127.419 57.8715C128.14 57.1564 129.001 56.5875 129.865 56.0172C129.99 55.9349 130.114 55.8526 130.239 55.7699C130.655 55.4924 130.754 54.9313 130.48 54.5121C130.306 54.2445 130.011 54.0808 129.692 54.0733C129.376 54.0657 129.059 54.0528 128.743 54.0399C127.666 53.9959 126.591 53.9519 125.546 54.1222C124.606 54.2717 123.666 54.4183 122.727 54.5649L122.726 54.565C117.95 55.3102 113.182 56.054 108.493 57.1535C97.7945 59.6931 87.3828 63.0286 78.6916 70.1946C72.737 75.0935 67.9896 80.7952 67.3948 88.8809C67.1462 92.3293 67.1289 95.7942 67.1117 99.2506C67.1078 100.027 67.1039 100.803 67.0974 101.579C67.0835 104.055 67.0864 106.532 67.0893 109.009C67.0945 113.427 67.0997 117.845 67.0089 122.26C66.9842 123.392 66.3398 125.235 65.5681 125.482C62.7749 126.374 62.7041 128.171 63.0829 130.491C63.1979 131.208 63.2192 131.944 63.2405 132.678C63.2663 133.572 63.2922 134.463 63.4864 135.315C64.4635 139.645 65.4902 143.939 66.7222 148.197C67.0997 149.473 67.6153 150.717 68.1297 151.958L68.1298 151.958C68.8939 153.802 69.6554 155.64 69.9579 157.564C70.9598 163.987 73.3424 169.568 77.6756 174.411C78.3942 175.214 78.9394 176.572 78.858 177.619C78.5181 182.578 78.0119 187.512 77.3428 192.418C77.2189 193.39 76.1993 194.809 75.3744 194.979C72.3308 195.604 71.6703 197.813 70.9686 200.161C70.9121 200.35 70.8553 200.54 70.797 200.73C69.7632 204.104 68.6516 207.493 67.3488 210.75C66.9311 211.769 65.915 212.841 64.9167 213.276C61.3009 214.848 57.6445 216.343 53.9885 217.838C51.7311 218.762 49.4738 219.685 47.2263 220.626C45.6568 221.289 44.083 221.944 42.5094 222.598C37.8074 224.554 33.106 226.509 28.5199 228.701C23.4675 231.097 18.5401 233.759 13.6157 236.42L13.6082 236.424C12.3862 237.084 11.1644 237.744 9.94089 238.4C7.64057 239.63 5.43663 240.945 3.39091 242.425C1.13083 244.06 0 246.774 0 249.563V276.187C0 281.71 4.47716 286.187 10 286.187H205Z" fill="white"/>
</svg>
