<svg width="215" height="286" viewBox="0 0 215 286" fill="none" xmlns="http://www.w3.org/2000/svg">
<rect width="215" height="286" rx="10" fill="#E0F0FF"/>
<path fill-rule="evenodd" clip-rule="evenodd" d="M215 251V36H214.986V251L215 251ZM215 270L212.216 251L212.208 251C212.071 249.898 211.786 248.815 211.505 247.75L211.505 247.75L211.505 247.749C211.362 247.207 211.22 246.67 211.1 246.137C207.371 231.733 197.448 222.837 183.06 217.519C172.675 213.675 162.488 209.252 152.391 204.662C150.572 203.836 149.05 202.382 147.52 200.921C146.631 200.071 145.738 199.218 144.783 198.485C143.635 197.61 142.246 196.799 140.873 196.576C136.193 195.832 134.127 194.169 133.01 189.547C131.571 183.47 130.537 177.426 131.786 171.116C132.349 168.371 133.349 166.609 136.028 165.559C140.215 163.927 144.345 162.159 148.472 160.393C149.822 159.814 151.173 159.236 152.524 158.663C156.625 156.927 156.906 155.488 155.41 151.238C150.672 137.843 147.174 124.233 146.025 109.92C145.822 107.367 145.695 104.798 145.567 102.226V102.226C145.243 95.6922 144.918 89.1369 143.346 82.7649H142.998C142.923 82.4235 142.858 82.081 142.794 81.7388L142.794 81.7386L142.794 81.7385C142.704 81.2598 142.614 80.782 142.494 80.3093C138.517 64.6554 121.707 56.1466 107.608 55.2542C107.55 55.25 107.494 55.2417 107.438 55.2334C107.383 55.2251 107.327 55.2168 107.269 55.2126C106.493 55.1709 105.742 55.2353 104.992 55.2996L104.992 55.2996L104.992 55.2996L104.991 55.2996C104.695 55.325 104.399 55.3504 104.102 55.3692C100.641 55.846 97.5471 57.3203 94.4515 58.7953C92.2295 59.854 90.0068 60.9131 87.6472 61.6039C80.2803 63.7699 75.7737 70.5256 73.0118 77.819C70.1166 85.523 69.7729 93.6083 69.4305 101.664C69.3132 104.425 69.196 107.181 68.9764 109.918C67.8276 124.231 64.3215 137.842 59.5918 151.237C58.1104 155.479 58.3668 156.917 62.4687 158.662C63.886 159.262 65.3012 159.867 66.7164 160.472C70.7834 162.211 74.851 163.951 78.9735 165.558C81.6522 166.608 82.6694 168.369 83.2071 171.115C84.4806 177.432 83.4468 183.493 81.9917 189.546C80.8679 194.169 78.8003 195.83 74.1288 196.574C72.7568 196.798 71.3669 197.623 70.2181 198.484C69.2498 199.223 68.3495 200.083 67.4529 200.939C65.9306 202.394 64.4189 203.838 62.6031 204.661C52.5076 209.249 42.3276 213.672 31.9342 217.518C19.0435 222.264 9.77399 229.947 5.28402 241.837C5.24693 241.937 5.2101 242.041 5.17257 242.148L5.1724 242.148C5.12587 242.28 5.07824 242.415 5.02765 242.548C4.08531 245.177 3.29957 247.922 2.84503 250.99H0V251H2.84375L0 270V286H215V270Z" fill="white"/>
</svg>
