<svg width="22" height="23" viewBox="0 0 22 23" fill="none" xmlns="http://www.w3.org/2000/svg">
<path d="M15.125 11.5C15.125 10.3542 14.724 9.38021 13.9219 8.57812C13.1198 7.77604 12.1458 7.375 11 7.375C9.85417 7.375 8.88021 7.77604 8.07812 8.57812C7.27604 9.38021 6.875 10.3542 6.875 11.5C6.875 12.6458 7.27604 13.6198 8.07812 14.4219C8.88021 15.224 9.85417 15.625 11 15.625C12.1458 15.625 13.1198 15.224 13.9219 14.4219C14.724 13.6198 15.125 12.6458 15.125 11.5ZM0 10.125V19.75C0 20.5091 0.268555 21.1572 0.805664 21.6943C1.34277 22.2314 1.99089 22.5 2.75 22.5H19.25C20.0091 22.5 20.6572 22.2314 21.1943 21.6943C21.7314 21.1572 22 20.5091 22 19.75V3.25C22 2.49089 21.7314 1.84277 21.1943 1.30566C20.6572 0.768555 20.0091 0.5 19.25 0.5H2.75C1.99089 0.5 1.34277 0.768555 0.805664 1.30566C0.268555 1.84277 0 2.49089 0 3.25V7.375H5.5C6.14453 6.52995 6.94662 5.86035 7.90625 5.36621C8.86589 4.87207 9.89714 4.625 11 4.625C12.1029 4.625 13.1341 4.87207 14.0938 5.36621C15.0534 5.86035 15.8555 6.52995 16.5 7.375H22V10.125H17.7461C17.832 10.5833 17.875 11.0417 17.875 11.5C17.875 12.7461 17.5671 13.8955 16.9512 14.9482C16.3353 16.001 15.501 16.8353 14.4482 17.4512C13.3955 18.0671 12.2461 18.375 11 18.375C9.75391 18.375 8.60449 18.0671 7.55176 17.4512C6.49902 16.8353 5.66471 16.001 5.04883 14.9482C4.43294 13.8955 4.125 12.7461 4.125 11.5C4.125 11.0417 4.16797 10.5833 4.25391 10.125H0Z" fill="white"/>
</svg>
