<svg width="22" height="23" viewBox="0 0 22 23" fill="none" xmlns="http://www.w3.org/2000/svg">
<path fill-rule="evenodd" clip-rule="evenodd" d="M3 0.5C1.34315 0.5 0 1.84315 0 3.5V19.5C0 21.1569 1.34315 22.5 3 22.5H19C20.6569 22.5 22 21.1569 22 19.5V3.5C22 1.84315 20.6569 0.5 19 0.5H3ZM2.7938 10.708L17.8525 4.59863C18.5396 4.27158 19.2038 4.77288 18.9414 5.88002L16.3772 18.5939C16.198 19.4982 15.6808 19.7126 14.9605 19.2953L11.0544 16.2598L9.17656 18.181C9.16955 18.1881 9.16259 18.1952 9.15566 18.2023C8.94617 18.4154 8.77252 18.5921 8.39432 18.5921L8.66101 14.3994L8.65931 14.3985H8.66101L15.9084 7.51706C16.226 7.22039 15.8396 7.07473 15.4166 7.34549L6.47142 13.2833L2.60524 12.0144C1.77204 11.7455 1.7661 11.1423 2.7938 10.708Z" fill="white"/>
</svg>
